# xmcd
#
# Track frame offsets:
#	150
#	19508
#	35591
#	53614
#	76407
#	98312
#	124163
#	143831
#	149824
#	167999
#
# Disc length: 2519 seconds
#
# Revision: 11
# Processed by: cddbd v1.5.2PL0 Copyright (c) Steve Scherf et al.
# Submitted via: Jack! The Knife 20 Magnifico
#
DISCID=8109d50a
DTITLE=Sting - The Dream Of The Blue Turtles
DYEAR=1985
DGENRE=Jazz
TTITLE0=If You Love Somebody Set Them Free
TTITLE1=Love Is The Seventh Wave
TTITLE2=Russians
TTITLE3=Children's Crusade
TTITLE4=Shadows In The Rain
TTITLE5=We Work The Black Seam
TTITLE6=Consider Me Gone
TTITLE7=The Dream Of The Blue Turtles
TTITLE8=Moon Over Bourbon Street
TTITLE9=Fortress Around Your Heart
EXTD=Sting and Peter Smith
EXTT0=Sting
EXTT1=Sting
EXTT2=Prokofiev, Sting
EXTT3=Sting
EXTT4=Sting
EXTT5=Sting
EXTT6=Sting
EXTT7=Sting
EXTT8=Sting
EXTT9=Sting
PLAYORDER=
